<?xml version="1.0" encoding="utf-8"?>
<!-- Generator: Adobe Illustrator 22.0.1, SVG Export Plug-In . SVG Version: 6.00 Build 0)  -->
<svg version="1.1" id="Layer_1" xmlns="http://www.w3.org/2000/svg" xmlns:xlink="http://www.w3.org/1999/xlink" x="0px" y="0px"
	 viewBox="0 0 800 600" style="enable-background:new 0 0 800 600;" xml:space="preserve">
<style type="text/css">
	.st0{opacity:0.56;fill:#18C1F3;enable-background:new    ;}
	.st1{opacity:0.66;fill:#18C1F3;enable-background:new    ;}
	.st2{opacity:0.4;fill:#18C1F3;enable-background:new    ;}
	.st3{fill:#FFFFFF;}
</style>
<g>
	<polygon class="st0" points="0.5,599.9 78.7,382.8 125.7,80.7 0.5,0 	"/>
	<polygon class="st1" points="0.5,599.9 158.9,240.7 0.5,0 0.5,0 	"/>
	<polygon class="st2" points="1.1,599.2 158.9,469.8 0.1,0 0.1,0 	"/>
</g>
<g>
	<path class="st3" d="M69.9,195.7c-1.7-0.2-4-0.9-4.4,1.4c-0.4,2.5,2.1,2.2,3.7,2.6c11.1,2.5,14.9,6.4,16.7,17.2
		c0.1,0.4,0.1,1,0.1,1.5c0.1,1.3,0.4,2.5,2.4,2.1c0.9-0.1,1.3-0.6,1.4-1.4c0.1-0.6,0-1.5,0.1-2.2C89.9,206.5,80.9,197.1,69.9,195.7
		L69.9,195.7z M70.9,204.2c-1.2,0-2.3,0.1-2.7,1.4c-0.6,1.7,0.7,2.2,2.1,2.5c4.5,0.6,6.9,3.3,7.4,7.7c0.1,0.6,0.3,1.1,0.5,1.5
		c0.4,0.4,0.9,0.6,1.5,0.6c0.4,0,0.7-0.1,0.9-0.3c0.7-0.6,0.9-1.7,0.8-2.7C81.5,209.9,75.8,204.1,70.9,204.2L70.9,204.2z
		 M93.9,239.1c-2.2-1.7-4.7-3.3-7-5c-4.7-3.2-9-3.5-12.5,1.7c-1.9,2.9-4.8,3-7.6,1.7c-8-3.5-14.1-8.9-17.7-16.9
		c-0.5-1.2-0.9-2.5-0.9-3.5c-0.1-2.1,0.7-4,3.1-5.6c1.9-1.3,3.9-2.8,3.8-5.7c-0.1-3.6-9.4-16.1-13.1-17.5c-1.5-0.5-3-0.4-4.5,0
		c-8.6,2.9-12,9.7-8.7,17.9c1.9,4.6,4,8.9,6.5,12.8c10.5,17.6,26,30.5,46,38.9c1.4,0.6,2.9,0.9,3.8,1c5.6,0.1,12.1-5.3,14-10.5
		C100.8,243.5,96.9,241.6,93.9,239.1L93.9,239.1z M66.4,190.9c17.9,2.7,26.2,11.1,28.4,28.8c0,0.1,0,0.3,0,0.4
		c0.1,1.7-0.1,3.8,1.9,3.8c1.9,0.1,1.9-1.4,1.9-2.7c-0.1-0.5-0.1-0.9-0.1-1.3c0.3-16.7-14.5-32.2-31.7-32.7c-1.4,0.2-4-0.9-4.3,1.9
		C62.6,191,64.8,190.7,66.4,190.9L66.4,190.9z"/>
</g>
<g>
	<path class="st3" d="M88.1,392c0.5,1.4-0.1,2.9-1.4,3.5c-5.9,2.7-12,3.7-19.1,3.7c-19.8,0-36.5-14.4-36.5-37.6
		c0-24.8,17.2-46.2,43.9-46.2c20.9,0,35.1,14.7,35.1,34.8c0,18-10.1,28.6-21.4,28.6c-4.8,0-9.3-3.2-8.9-10.6h-0.5
		c-4.2,7.1-9.7,10.6-17,10.6c-7,0-13-5.6-13-15.1c0-14.9,11.8-28.6,28.6-28.6c3.6,0,6.9,0.5,9.7,1.4c1.8,0.6,3,2.4,2.6,4.3
		l-3.5,18.8c-1.8,9.2-0.4,13.3,3.6,13.5c6.1,0.1,13-8.1,13-22c0-17.5-10.5-30-29.1-30c-19.6,0-36.1,15.5-36.1,40
		c0,20.1,13.1,32.5,30.9,32.5c5.7,0,11.1-1,15.6-3C85.9,389.8,87.6,390.5,88.1,392L88.1,392z M82.4,342.3c-1.2-0.4-3.2-0.9-6-0.9
		c-11,0-19.8,10.7-19.1,22.9c0.2,3.8,2.8,7.1,6.5,7.7c7.5,1.3,14.7-8.3,16.1-16.2L82.4,342.3z"/>
</g>
</svg>
