<svg id="5228815c-08f9-4141-91ea-ee042ac4ec16" data-name="Layer 1" xmlns="http://www.w3.org/2000/svg" width="800" height="132.35" viewBox="0 0 800 132.35"><defs><style>.\30 908b197-1c0b-49d8-b6b4-4404ea83544a{fill:#20c0f1;}.\34 ad96e5c-1706-410c-80f5-41a1fc01b02a{fill:#f8b92d;}.dbcdf0ae-15bc-4b6c-b44e-87c27e8dae82{fill:#ee3e69;}.dc1d171f-11bf-446e-bfd2-11b3784fcfa6{fill:#f37e56;}.\37 dd3fb8e-086f-44e5-a515-543430f82d55{fill:#30b04b;}</style></defs><title>footer</title><polygon class="0908b197-1c0b-49d8-b6b4-4404ea83544a" points="0 77.72 401.03 0 800 83.23 800 132.09 0 132.09 0 77.72"/><polygon class="4ad96e5c-1706-410c-80f5-41a1fc01b02a" points="123.82 73.16 606.69 8.25 800 83.23 800 132.09 0 132.09 123.82 73.16"/><polygon class="dbcdf0ae-15bc-4b6c-b44e-87c27e8dae82" points="1 116.52 143.22 14.23 800 110.38 800 132.34 1 131.77 1 116.52"/><polygon class="dc1d171f-11bf-446e-bfd2-11b3784fcfa6" points="0 14.23 230.63 86.76 800 36.04 800 132.09 0 132.09 0 14.23"/><polygon class="7dd3fb8e-086f-44e5-a515-543430f82d55" points="0 132.09 171.99 105.16 341.11 70.17 800 110.38 800 132.09 0 132.09 0 132.09"/></svg>
