<?xml version="1.0" encoding="utf-8"?>
<!-- Generator: Adobe Illustrator 22.0.1, SVG Export Plug-In . SVG Version: 6.00 Build 0)  -->
<svg version="1.1" id="Layer_1" xmlns="http://www.w3.org/2000/svg" xmlns:xlink="http://www.w3.org/1999/xlink" x="0px" y="0px"
	 viewBox="0 0 800 402.6" style="enable-background:new 0 0 800 402.6;" xml:space="preserve">
<style type="text/css">
	.st0{display:none;}
	.st1{fill:#18C1F3;}
	.st2{fill:#FBBB31;}
	.st3{opacity:0.5;fill:#EE3E69;}
	.st4{fill:#EE3E69;}
	.st5{opacity:0.5;fill:#28B24B;}
	.st6{fill:#28B24B;}
	.st7{opacity:0.5;fill:#FBBB31;}
	.st8{opacity:0.5;fill:#18C1F3;}
	.st9{fill:#FFFFFF;}
</style>
<g class="st0">
</g>
<g>
	<polygon class="st1" points="360.8,84.9 503.3,66.4 635.2,159.2 482.6,301.7 363,241.5 	"/>
	<polygon class="st2" points="32.5,122.2 140.8,51.1 319.9,173.7 263.6,316.8 42.5,271.8 	"/>
	<polygon class="st3" points="243.4,32.8 388.7,62.6 420.4,237.1 335.8,309 176.3,199.1 	"/>
	<polygon class="st4" points="263.8,52.4 388.7,62.6 420.4,237.1 335.8,309 176.3,199.1 	"/>
	<polygon class="st5" points="604.8,52.8 743.3,88 753.9,282.8 579.7,309.6 482,160.1 	"/>
	<polygon class="st6" points="604.8,53.6 725.5,97.4 743.2,251 578.7,308.9 482,160.9 	"/>
	<polygon class="st7" points="32.5,120.5 189.8,49.4 319.9,172 287.1,324.5 28.8,289.5 	"/>
	<polygon class="st8" points="360.8,85.4 512.1,50.6 635.2,159.7 488.3,327.3 363,241.9 	"/>
</g>
<g>
	<path class="st9" d="M90.3,100.1h18.2l40.4,65.2l39.8-65.2H207l-50.1,82.5v75.5h-15.6v-75.5L90.3,100.1z"/>
	<path class="st9" d="M308.2,96.2c23.9,0,44,8,60.1,24c16.1,16,24.2,35.6,24.2,59c0,23.1-8,42.8-24.1,58.9
		c-16.1,16.1-35.7,24.2-58.9,24.2c-23.4,0-43.2-8-59.3-24.1c-16.1-16-24.2-35.4-24.2-58.2c0-15.2,3.7-29.3,11-42.2
		c7.3-13,17.4-23.1,30-30.5C279.7,99.8,293.5,96.2,308.2,96.2z M308.9,111.5c-11.7,0-22.8,3-33.2,9.1c-10.5,6.1-18.7,14.3-24.5,24.6
		c-5.9,10.3-8.8,21.8-8.8,34.5c0,18.8,6.5,34.6,19.5,47.6c13,12.9,28.7,19.4,47.1,19.4c12.3,0,23.6-3,34.1-8.9
		c10.4-5.9,18.6-14.1,24.4-24.4s8.8-21.8,8.8-34.4c0-12.5-2.9-23.9-8.8-34s-14.1-18.3-24.7-24.3
		C332.1,114.6,320.8,111.5,308.9,111.5z"/>
	<path class="st9" d="M424.2,100.1H440v142.8h60.8v15.3h-76.6V100.1z"/>
	<path class="st9" d="M601.1,96.2c23.9,0,44,8,60.1,24c16.1,16,24.2,35.6,24.2,59c0,23.1-8,42.8-24.1,58.9s-35.7,24.2-58.9,24.2
		c-23.4,0-43.2-8-59.3-24.1c-16.1-16-24.2-35.4-24.2-58.2c0-15.2,3.7-29.3,11-42.2c7.3-13,17.4-23.1,30-30.5
		C572.6,99.8,586.3,96.2,601.1,96.2z M601.8,111.5c-11.7,0-22.8,3-33.2,9.1c-10.5,6.1-18.7,14.3-24.5,24.6
		c-5.9,10.3-8.8,21.8-8.8,34.5c0,18.8,6.5,34.6,19.5,47.6c13,12.9,28.7,19.4,47.1,19.4c12.3,0,23.6-3,34.1-8.9
		c10.4-5.9,18.6-14.1,24.4-24.4c5.8-10.3,8.8-21.8,8.8-34.4c0-12.5-2.9-23.9-8.8-34c-5.8-10.1-14.1-18.3-24.7-24.3
		C624.9,114.6,613.7,111.5,601.8,111.5z"/>
</g>
<g>
	<path d="M213.3,370.2l5.2,2.7c-1.7,3.3-3.7,6-5.9,8.1c-2.2,2.1-4.7,3.6-7.5,4.7c-2.8,1.1-5.9,1.6-9.5,1.6c-7.8,0-13.9-2.6-18.3-7.7
		c-4.4-5.1-6.6-10.9-6.6-17.3c0-6.1,1.9-11.5,5.6-16.2c4.7-6,11-9.1,19-9.1c8.2,0,14.7,3.1,19.5,9.3c3.5,4.4,5.2,9.8,5.3,16.3h-43
		c0.1,5.6,1.9,10.1,5.3,13.7c3.4,3.6,7.7,5.3,12.7,5.3c2.4,0,4.8-0.4,7.1-1.3c2.3-0.8,4.3-2,5.9-3.4
		C209.7,375.6,211.4,373.3,213.3,370.2z M213.3,357.3c-0.8-3.3-2-5.9-3.6-7.9s-3.6-3.5-6.2-4.7c-2.6-1.2-5.3-1.8-8.1-1.8
		c-4.7,0-8.7,1.5-12.1,4.5c-2.5,2.2-4.3,5.5-5.6,9.9H213.3z"/>
	<path d="M263.1,338.3h6.5l16,34.9l15.9-34.9h6.6l-21.9,47.8h-1.1L263.1,338.3z"/>
	<path d="M393.8,370.2l5.2,2.7c-1.7,3.3-3.7,6-5.9,8.1c-2.2,2.1-4.7,3.6-7.5,4.7c-2.8,1.1-5.9,1.6-9.5,1.6c-7.8,0-13.9-2.6-18.3-7.7
		c-4.4-5.1-6.6-10.9-6.6-17.3c0-6.1,1.9-11.5,5.6-16.2c4.7-6,11-9.1,19-9.1c8.2,0,14.7,3.1,19.5,9.3c3.5,4.4,5.2,9.8,5.3,16.3h-43
		c0.1,5.6,1.9,10.1,5.3,13.7c3.4,3.6,7.7,5.3,12.7,5.3c2.4,0,4.8-0.4,7.1-1.3c2.3-0.8,4.3-2,5.9-3.4
		C390.2,375.6,392,373.3,393.8,370.2z M393.8,357.3c-0.8-3.3-2-5.9-3.6-7.9s-3.6-3.5-6.2-4.7c-2.6-1.2-5.3-1.8-8.1-1.8
		c-4.7,0-8.7,1.5-12.1,4.5c-2.5,2.2-4.3,5.5-5.6,9.9H393.8z"/>
	<path d="M448.2,338.3h6.2v8.6c2.5-3.3,5.2-5.7,8.2-7.4c3-1.6,6.2-2.4,9.8-2.4c3.6,0,6.7,0.9,9.5,2.7c2.8,1.8,4.8,4.3,6.1,7.3
		s2,7.9,2,14.4v24.6h-6.2v-22.8c0-5.5-0.2-9.2-0.7-11c-0.7-3.2-2.1-5.5-4.1-7.1s-4.7-2.4-7.9-2.4c-3.7,0-7.1,1.2-10,3.7
		s-4.9,5.5-5.8,9.1c-0.6,2.4-0.9,6.7-0.9,13v17.5h-6.2V338.3z"/>
	<path d="M544.5,320.5h6.2v17.8h9.8v5.3h-9.8v42.5h-6.2v-42.5h-8.4v-5.3h8.4V320.5z"/>
	<path d="M629.8,343.5l-4,4.1c-3.3-3.2-6.5-4.8-9.6-4.8c-2,0-3.7,0.7-5.1,2c-1.4,1.3-2.1,2.9-2.1,4.6c0,1.6,0.6,3,1.8,4.4
		c1.2,1.4,3.6,3.1,7.4,5.1c4.6,2.4,7.7,4.7,9.3,6.9c1.6,2.2,2.4,4.7,2.4,7.5c0,3.9-1.4,7.3-4.1,10s-6.2,4.1-10.3,4.1
		c-2.8,0-5.4-0.6-7.9-1.8s-4.6-2.9-6.2-5l3.9-4.4c3.1,3.5,6.5,5.3,10,5.3c2.5,0,4.6-0.8,6.3-2.4c1.7-1.6,2.6-3.4,2.6-5.6
		c0-1.8-0.6-3.3-1.7-4.7c-1.1-1.3-3.7-3-7.8-5.1c-4.3-2.2-7.3-4.4-8.8-6.6s-2.3-4.6-2.3-7.4c0-3.6,1.2-6.7,3.7-9.1
		c2.5-2.4,5.6-3.6,9.4-3.6C620.9,337,625.3,339.2,629.8,343.5z"/>
</g>
</svg>
