<svg id="c2afdbc3-6679-4cdf-ba52-ccc23b913103" data-name="Layer 1" xmlns="http://www.w3.org/2000/svg" width="492.76" height="392.4" viewBox="0 0 492.76 392.4"><defs><style>.\37 e01deb3-51aa-48a2-8bfb-5680e89cdbca{isolation:isolate;}.\35 2fd383c-0fe6-4b2b-a757-33e9fd19b727{fill:#ffffff;}</style></defs><title>quote1</title><g class="7e01deb3-51aa-48a2-8bfb-5680e89cdbca"><path class="52fd383c-0fe6-4b2b-a757-33e9fd19b727" d="M120,445.8c-19.19,0-35.19-4.27-49-11.73a112.13,112.13,0,0,1-36.25-30.92,148.18,148.18,0,0,1-22.4-42.65c-5.33-16-8.53-33.06-8.53-49.05q0-54.39,12.8-92.77a185.91,185.91,0,0,1,38.39-66.11,279.64,279.64,0,0,1,59.71-51.19c23.46-14.92,48-30.92,75.71-45.85q11.19-6.39,19.19,6.4c5.33,8.53,4.27,14.93-3.2,20.26-17.06,12.8-32,24.53-46.92,37.32-14.92,11.73-26.65,24.53-37.32,37.32S105,184.56,100.76,199.48c-3.2,16-3.2,33.06,2.13,53.32,2.13,8.53,5.33,13.86,10.66,16s13.87,4.27,26.66,5.33c24.53,2.14,41.59,11.73,54.38,27.73,11.73,16,18.13,36.25,18.13,60.78s-9.6,43.72-27.72,59.71C165.8,438.34,144.48,445.8,120,445.8Zm283.64,0c-19.2,0-35.19-4.27-49-11.73a112.27,112.27,0,0,1-36.26-30.92,148.15,148.15,0,0,1-22.39-42.65c-5.33-16-7.46-33.06-7.46-49.05,0-36.26,4.26-67.18,13.86-92.77a185.76,185.76,0,0,1,38.39-66.11,279.64,279.64,0,0,1,59.71-51.19c23.46-14.92,48-30.92,75.71-45.85,5.33-4.26,11.72-2.13,17.06,6.4s4.26,14.93-3.2,20.26C472.9,95,458,106.72,443,119.51c-14.93,11.73-26.66,24.53-37.32,37.32s-17.06,27.73-21.33,42.65c-3.2,16-3.2,33.06,2.14,53.32,2.13,8.53,5.33,13.86,10.66,16s13.86,4.27,26.66,5.33c24.52,2.14,41.58,11.73,54.38,27.73,11.73,16,18.13,36.25,18.13,60.78s-9.6,43.72-27.73,59.71C449.44,438.34,428.11,445.8,403.59,445.8Z" transform="translate(-3.72 -53.4)"/></g></svg>
