<svg id="3c48f329-654c-4859-8c4c-0899ece207c6" data-name="Layer 1" xmlns="http://www.w3.org/2000/svg" width="491.28" height="397.05" viewBox="0 0 491.28 397.05"><defs><style>.c5fd3a7a-2af0-4a77-aa13-f6ff955c7e20{isolation:isolate;}.e74a9724-81ed-43ed-881a-a45a9915e14c{fill:#ffffff;}</style></defs><title>quote2</title><g class="c5fd3a7a-2af0-4a77-aa13-f6ff955c7e20"><path class="e74a9724-81ed-43ed-881a-a45a9915e14c" d="M100,51.5c18.52,0,36,3.27,50.11,10.89A107.72,107.72,0,0,1,186,92.89a160.21,160.21,0,0,1,22.87,42.49,153.27,153.27,0,0,1,7.63,49c0,37-4.36,68.63-14.16,94.77a229.22,229.22,0,0,1-39.22,67.54A317.55,317.55,0,0,1,103.25,399c-22.88,16.34-49,31.59-76.25,47.93a8.17,8.17,0,0,1-9.81,0c-3.26-2.18-6.53-4.36-8.71-7.63A18.38,18.38,0,0,1,5.21,428.4c0-4.36,2.18-7.63,6.54-10.89,16.34-13.08,32.68-25.06,47.93-35.95A305.87,305.87,0,0,0,97.8,345.61c10.9-13.07,17.43-26.14,21.79-42.48,3.27-15.25,3.27-33.77-2.18-54.47-2.18-8.71-5.45-14.16-10.89-16.34S92.36,228,79.28,226.88c-24-2.18-42.48-10.9-54.46-27.24s-18.52-37-18.52-61S16.1,94,34.62,78.73C53.14,60.21,74.93,51.5,100,51.5Zm280,0c18.52,0,35.95,3.27,50.11,10.89A107.72,107.72,0,0,1,466,92.89a160.21,160.21,0,0,1,22.87,42.49,153.27,153.27,0,0,1,7.63,49c0,37-4.36,68.63-14.16,94.77a229.22,229.22,0,0,1-39.22,67.54A317.23,317.23,0,0,1,383.2,399c-22.87,16.34-49,31.59-76.25,47.93a8.16,8.16,0,0,1-9.8,0c-3.27-2.18-6.54-4.36-8.72-7.63a18.38,18.38,0,0,1-3.27-10.89c0-4.36,2.18-7.63,6.54-10.89,17.43-13.08,32.68-25.06,47.93-35.95a305.87,305.87,0,0,0,38.12-35.95c10.9-13.07,17.43-26.14,21.79-42.48,3.27-15.25,3.27-33.77-2.18-54.47-2.18-8.71-5.44-14.16-10.89-16.34s-14.16-4.35-27.23-5.44c-24-2.18-42.49-10.9-54.47-27.24s-18.52-37-18.52-61S296.06,94,314.57,78.73C334.18,60.21,356,51.5,379.93,51.5Z" transform="translate(-5.21 -51.5)"/></g></svg>
