<svg id="711af13b-4a90-4adf-aee9-ce34d5137eb0" data-name="Layer 1" xmlns="http://www.w3.org/2000/svg" width="725.03" height="294.43" viewBox="0 0 725.03 294.43"><defs><style>.\30 fc24a9b-ced8-477b-ad73-191f38160957,.eb68cc44-17e0-4d13-b381-8767f4f9b277{fill:#18c1f3;}.\38 2c48922-6402-4d12-90fe-597d50af3954,.\38 bed62bb-7ef0-4231-abfb-22d5dff58a0f{fill:#fbbb31;}.\31 e6efc48-21ba-485a-9a62-20e64b866fb1,.\35 c939fa8-0746-48ae-8a49-d052201fa13b{fill:#ee3e69;}.\30 fc24a9b-ced8-477b-ad73-191f38160957,.\31 e6efc48-21ba-485a-9a62-20e64b866fb1,.\38 2c48922-6402-4d12-90fe-597d50af3954,.f2e726ed-fb81-42a1-b6f5-7a52fc7c2a9e{opacity:0.5;}.\31 a360a82-f27e-4a97-bb3e-f0ec0f64cb95,.f2e726ed-fb81-42a1-b6f5-7a52fc7c2a9e{fill:#28b24b;}</style></defs><title>YOLO shapes</title><polygon class="eb68cc44-17e0-4d13-b381-8767f4f9b277" points="331.94 52.09 474.44 33.62 606.39 126.42 453.77 268.92 334.14 208.67 331.94 52.09"/><polygon class="8bed62bb-7ef0-4231-abfb-22d5dff58a0f" points="3.65 89.41 111.98 18.3 291.1 140.85 234.77 283.97 13.64 238.97 3.65 89.41"/><polygon class="1e6efc48-21ba-485a-9a62-20e64b866fb1" points="214.53 0 359.9 29.82 391.58 204.27 306.97 276.21 147.43 166.25 214.53 0"/><polygon class="5c939fa8-0746-48ae-8a49-d052201fa13b" points="234.96 19.54 359.9 29.82 391.58 204.27 306.97 276.21 147.43 166.25 234.96 19.54"/><polygon class="f2e726ed-fb81-42a1-b6f5-7a52fc7c2a9e" points="575.93 19.96 714.47 55.15 725.03 249.99 550.86 276.82 453.22 127.28 575.93 19.96"/><polygon class="1a360a82-f27e-4a97-bb3e-f0ec0f64cb95" points="575.93 20.75 696.66 64.63 714.34 218.21 549.83 276.03 453.22 128.07 575.93 20.75"/><polygon class="82c48922-6402-4d12-90fe-597d50af3954" points="3.65 87.7 160.99 16.59 291.1 139.14 258.23 291.7 0 256.67 3.65 87.7"/><polygon class="0fc24a9b-ced8-477b-ad73-191f38160957" points="331.94 52.53 483.24 17.79 606.39 126.86 459.49 294.43 334.14 209.11 331.94 52.53"/></svg>